<?xml version="1.0" standalone="no"?>
<!DOCTYPE svg PUBLIC "-//W3C//DTD SVG 1.0//EN" "http://www.w3.org/TR/2001/REC-SVG-20010904/DTD/svg10.dtd">
<svg xmlns="http://www.w3.org/2000/svg" xmlns:xlink="http://www.w3.org/1999/xlink" id="body_1" width="512" height="384">

<g transform="matrix(0.94814813 0 0 0.94814813 -0 172.0889)">
    <path d="M0 0L540 0L540 42L0 42z" stroke="none" fill="none" />
    <path d="M42.65 13.93C 42.65 6.6600003 35.38 2.1100006 28.650002 2.1100006L28.650002 2.1100006L9.13 2.1100006L9.13 41L20.83 41L20.83 22.11L29.83 40.64L29.94 40.98L43.24 40.98L34 24.61C 39.36 23 42.65 18.93 42.65 13.93zM20.83 7.68L24.24 7.68C 25.952044 7.6023855 27.617767 8.248548 28.829609 9.46039C 30.04145 10.672232 30.687614 12.3379545 30.61 14.049999C 30.61 19.5 27.54 20.519999 22.080002 20.519999L22.080002 20.519999L20.83 20.519999z" stroke="none" fill="#FFFFFF" fill-rule="nonzero" />
    <path d="M142.65 34.73L142.65 24.05L155.38 24.05L155.38 17.8L142.65 17.8L142.65 8.25L156.06 8.25L156.06 2L130.95 2L130.95 40.86L156.74 40.86L156.74 34.73L142.65 34.73L142.65 34.73" stroke="none" fill="#FFFFFF" fill-rule="nonzero" />
    <path d="M107 2L89.81 2L89.81 40.86L108.81 40.86C 120.399994 40.86 127.899994 33.48 127.899994 22.11C 127.88 10.52 119.13 2 107 2zM115.75 20.64C 115.75 27.8 112.91 35.52 104.84 35.52L104.84 35.52L101 35.52L101 7.34L104.52 7.34C 112.31 7.34 115.72 14.05 115.72 20.64z" stroke="none" fill="#FFFFFF" fill-rule="nonzero" />
    <path d="M85.72 4.73L82.42 1.4300001L78.42 5.4300003C 74.71581 2.5690556 70.17037 1.0117245 65.49 1C 57.563465 0.9427738 50.31285 5.4560738 46.864853 12.593619C 43.416862 19.731163 44.3882 28.216316 49.36 34.39L49.36 34.39L45.36 38.39L48.65 41.69L52.65 37.69C 56.32965 40.518246 60.849136 42.0353 65.49 42C 70.96149 42.088806 76.238174 39.970284 80.12919 36.122543C 84.0202 32.274807 86.19761 27.02214 86.17 21.55C 86.16477 16.892984 84.60578 12.37085 81.74 8.7L81.74 8.7L85.72 4.73zM65.49 6.09C 69.13 6.09 71.17 8.4800005 72.42 11.43L72.42 11.43L57.31 26.55C 57.11043 24.850534 57.00693 23.14113 57 21.43C 56.86 16.89 57.77 6.09 65.49 6.09zM73.67 16.66C 73.874756 18.282198 73.98494 19.914999 74 21.55C 74 26.199999 73.2 36.89 65.47 36.89C 61.95 36.89 59.79 34.61 58.65 31.77z" stroke="none" fill="#FFFFFF" fill-rule="nonzero" />
    <path d="M522.33 1.07L520.9 1.07L520.9 0.31L524.65 0.31L524.65 1.0699999L523.22003 1.0699999L523.22003 5L522.33 5L522.33 1.07zM525.56 0.31000006L526.92 0.31000006L528.2 3.94L529.51 0.31L530.87 0.31L530.87 5L530 5L530 1.09L528.63 5.09L527.9 5.09L526.52 1.1400001L526.52 5L525.63 5z" stroke="none" fill="#FFFFFF" fill-rule="nonzero" />
    <path d="M491.66 0L495.85 0L495.85 41.45L483.38 41.45L483.38 8.32C 483.38544 3.7428246 487.08292 0.027470589 491.66 0z" stroke="none" fill="#AC9870" fill-rule="nonzero" />
    <path d="M507 41.45L502.81 41.45L502.81 0L515.27997 0L515.27997 33.13C 515.27454 37.707165 511.5771 41.422512 507 41.45z" stroke="none" fill="#AC9870" fill-rule="nonzero" />
    <path d="M198.22 34.69C 196.5621 37.0455 194.31816 38.927525 191.71 40.149998C 189.19226 41.267612 186.46455 41.83361 183.71 41.809998C 180.90392 41.840557 178.11873 41.32428 175.51001 40.289997C 173.10638 39.322548 170.93279 37.860996 169.13 36C 167.33334 34.13833 165.9289 31.934748 165 29.52C 163.98787 26.888466 163.48233 24.08933 163.51 21.27C 163.4803 18.46025 163.98598 15.67056 165 13.05C 165.93481 10.632937 167.34225 8.426579 169.14 6.5600004C 170.94756 4.7118425 173.11577 3.2550201 175.51 2.2800002C 178.11145 1.2306366 180.89507 0.7072201 183.7 0.74C 186.24504 0.7196045 188.76938 1.1986504 191.12999 2.15C 193.51198 3.165434 195.58228 4.7940626 197.12999 6.87L197.12999 6.87L194.12999 9.35C 192.99559 7.5945735 191.37704 6.205269 189.46999 5.3500004C 187.63931 4.5162115 185.65161 4.083213 183.63998 4.0800004C 181.28369 4.0441685 178.94522 4.4934826 176.76999 5.4000006C 174.82129 6.2333755 173.06488 7.4587793 171.61 9C 170.15431 10.581587 169.02899 12.437862 168.3 14.46C 167.51471 16.636887 167.12195 18.93587 167.14 21.25C 167.12195 23.56413 167.51471 25.863113 168.3 28.04C 169.029 30.06511 170.15425 31.924656 171.61 33.510002C 173.07797 35.07309 174.85583 36.31282 176.83 37.15C 179.0045 38.059944 181.343 38.512672 183.7 38.480003C 185.85529 38.46266 187.97856 37.956627 189.91 37C 190.94583 36.49108 191.919 35.86355 192.81 35.13C 193.75389 34.344803 194.57321 33.42096 195.23999 32.39L195.23999 32.39L198.22 34.69z" stroke="none" fill="#FFFFFF" fill-rule="nonzero" />
    <path d="M216.88 1.73L220.63 1.73L237.08 40.81L233 40.81L228.75 30.440002L208.05 30.440002L203.63 40.81L199.82 40.81L216.88 1.73zM218.59001 5.73L209.48001 27.14L227.42001 27.14z" stroke="none" fill="#FFFFFF" fill-rule="nonzero" />
    <path d="M243.76 33.58C 244.6237 35.144825 245.91826 36.42897 247.48999 37.280003C 249.09862 38.112457 250.88904 38.531708 252.7 38.500004C 253.86343 38.50764 255.01978 38.3183 256.12 37.940002C 257.13803 37.6054 258.08435 37.083057 258.91 36.4C 259.6975 35.74019 260.33795 34.922604 260.79 34C 261.2617 33.00724 261.49783 31.91898 261.48 30.82C 261.5262 29.640198 261.22736 28.472523 260.62003 27.46C 260.03778 26.561531 259.2536 25.811583 258.33002 25.269999C 257.30765 24.671183 256.225 24.18182 255.10002 23.809998C 253.91002 23.409998 252.67003 22.999998 251.41002 22.599998C 250.15001 22.199999 248.90002 21.729998 247.71002 21.22C 246.53635 20.724487 245.44672 20.04979 244.48003 19.22C 243.49658 18.361015 242.71468 17.295715 242.19003 16.099998C 241.57643 14.635672 241.2832 13.057004 241.33003 11.469998C 241.29329 9.8757925 241.63603 8.295692 242.33003 6.859998C 242.9844 5.543085 243.92789 4.3910666 245.09003 3.4899983C 246.29054 2.5854645 247.6461 1.9076862 249.09003 1.4899983C 250.62688 1.0253735 252.22449 0.79281044 253.83003 0.79999834C 255.86505 0.78254986 257.88354 1.1665382 259.77002 1.9299984C 261.65884 2.7356138 263.29114 4.042843 264.49002 5.709998L264.49002 5.709998L261.34003 7.9699984C 260.52472 6.7396016 259.4277 5.721428 258.14 5C 256.78082 4.311739 255.27321 3.96832 253.75002 4C 252.61006 3.995801 251.47533 4.1540585 250.38002 4.47C 249.37141 4.766947 248.42813 5.252158 247.6 5.9C 246.80057 6.5113974 246.14798 7.293822 245.69 8.190001C 245.19058 9.202693 244.94356 10.321168 244.97 11.450001C 244.86143 13.088552 245.40001 14.704308 246.47 15.950001C 247.51958 17.031746 248.78778 17.877213 250.19 18.43C 251.77325 19.069145 253.39671 19.603615 255.05 20.03C 256.7331 20.466146 258.36295 21.086567 259.91 21.880001C 261.3906 22.643513 262.66632 23.751198 263.63 25.11C 264.71637 26.808582 265.2379 28.807165 265.12 30.82C 265.1493 32.439198 264.80722 34.043583 264.12 35.51C 263.49524 36.854168 262.58392 38.045357 261.45 39C 260.30267 39.95399 258.98178 40.677258 257.56 41.13C 256.0811 41.611084 254.53516 41.854115 252.98 41.850002C 250.54062 41.87671 248.1203 41.4178 245.86 40.500004C 243.61057 39.53108 241.67754 37.951393 240.28 35.940002L240.28 35.940002L243.76 33.58z" stroke="none" fill="#FFFFFF" fill-rule="nonzero" />
    <path d="M282.07 5L268.71 5L268.71 1.73L299.07 1.73L299.07 5L285.71 5L285.71 40.81L282.06998 40.81L282.07 5z" stroke="none" fill="#FFFFFF" fill-rule="nonzero" />
    <path d="M305.09 1.73L329 1.73L329 5L308.73 5L308.73 19L327.73 19L327.73 22.32L308.73 22.32L308.73 37.5L329.87 37.5L329.87 40.81L305.09 40.81L305.09 1.73z" stroke="none" fill="#FFFFFF" fill-rule="nonzero" />
    <path d="M335.34 1.73L345.61 1.73C 346.12 1.73 346.81998 1.73 347.69998 1.79C 348.6635 1.8287029 349.62283 1.9390087 350.56998 2.12C 351.64478 2.3158188 352.69925 2.610403 353.71997 3C 354.7808 3.4015083 355.75497 4.0023127 356.58997 4.77C 357.47684 5.5942802 358.19073 6.5869174 358.68997 7.69C 359.27737 9.049034 359.56064 10.5200205 359.51996 12C 359.56702 13.604799 359.22385 15.197044 358.51996 16.64C 357.93396 17.788233 357.1047 18.794931 356.08997 19.59C 355.12207 20.338081 354.0282 20.907036 352.85995 21.27C 351.763 21.620834 350.6393 21.881697 349.49997 22.050001L349.49997 22.050001L360.9 40.81L356.75998 40.81L345.75998 22.27L339 22.27L339 40.81L335.36 40.81L335.34 1.73zM339 19L346.73 19C 348.31403 19.056677 349.89468 18.81585 351.39 18.29C 352.437 17.90855 353.3889 17.304684 354.18002 16.52C 354.80292 15.884407 355.26566 15.109747 355.53003 14.26C 355.75488 13.54429 355.8761 12.800071 355.89 12.05C 355.8761 11.29993 355.75488 10.555711 355.53003 9.84C 355.26566 8.990253 354.80292 8.215593 354.18002 7.58C 353.3889 6.7953153 352.437 6.191451 351.39 5.81C 349.89505 5.2471666 348.3071 4.972329 346.71 5L346.71 5L339 5z" stroke="none" fill="#FFFFFF" fill-rule="nonzero" />
    <path d="M372.76 1.73L384 1.73C 385.43903 1.7396069 386.87323 1.8971004 388.28 2.2C 389.72885 2.4976702 391.11356 3.0495214 392.37 3.83C 393.61157 4.628594 394.641 5.7163363 395.37 7C 396.21036 8.546913 396.62125 10.290618 396.56 12.05C 396.59244 13.637364 396.24982 15.209988 395.56 16.64C 394.95163 17.88158 394.06537 18.966303 392.97 19.81C 391.8455 20.65379 390.57385 21.28112 389.22 21.66C 387.77185 22.067461 386.27435 22.272738 384.77 22.27L384.77 22.27L376.33 22.27L376.33 40.81L372.68 40.81L372.76 1.73zM376.41 19L384.69 19C 385.7003 19.002045 386.7073 18.884563 387.69 18.65C 388.63748 18.43061 389.53604 18.037285 390.34 17.49C 391.1266 16.939 391.77097 16.208939 392.22 15.36C 392.7296 14.350909 392.9772 13.229851 392.94 12.099999C 392.97192 10.986325 392.71344 9.883518 392.19 8.9C 391.71265 8.041773 391.05405 7.297851 390.26 6.7199993C 389.4373 6.136607 388.51068 5.715732 387.53 5.4799995C 386.53366 5.194562 385.5059 5.0333395 384.47 5L384.47 5L376.41 5z" stroke="none" fill="#AD9970" fill-rule="nonzero" />
    <path d="M404.45 1.73L414.72 1.73C 415.23 1.73 415.93 1.73 416.81 1.79C 417.77353 1.8287029 418.73285 1.9390087 419.68 2.12C 420.75482 2.3158188 421.8093 2.610403 422.83 3C 423.8908 3.4015083 424.865 4.0023127 425.69998 4.77C 426.58688 5.5942802 427.30078 6.5869174 427.8 7.69C 428.38736 9.049034 428.67062 10.5200205 428.62997 12C 428.67703 13.604799 428.33386 15.197044 427.62997 16.64C 427.04398 17.788233 426.21472 18.794931 425.19998 19.59C 424.24112 20.334938 423.15765 20.903763 422 21.27C 420.90305 21.620834 419.77936 21.881697 418.64 22.050001L418.64 22.050001L430 40.81L425.86 40.81L414.86 22.27L408.06998 22.27L408.06998 40.81L404.42996 40.81L404.45 1.73zM408.09 19L415.82 19C 417.40405 19.056677 418.9847 18.81585 420.48 18.29C 421.52698 17.90855 422.47885 17.304684 423.27002 16.52C 423.89288 15.884407 424.35562 15.109747 424.62003 14.26C 424.8564 13.529279 424.98444 12.76785 425 12C 424.98608 11.24993 424.86487 10.505712 424.64 9.79C 424.37564 8.940252 423.9129 8.165593 423.29 7.5299997C 422.49887 6.745315 421.547 6.141451 420.5 5.7599998C 419.0018 5.214202 417.41397 4.9563494 415.82 5L415.82 5L408.09 5z" stroke="none" fill="#AD9970" fill-rule="nonzero" />
    <path d="M434.64 21.27C 434.6103 18.460258 435.11597 15.670555 436.13 13.05C 437.07236 10.636767 438.4789 8.431814 440.27002 6.5600004C 442.0794 4.709379 444.2514 3.2522945 446.65002 2.2800002C 451.92035 0.22621918 457.7697 0.22621918 463.04004 2.2800002C 465.43866 3.2522945 467.61066 4.709379 469.42004 6.5600004C 471.2178 8.426578 472.62527 10.632935 473.56006 13.05C 474.5741 15.670555 475.07977 18.460258 475.05005 21.27C 475.07773 24.089325 474.57217 26.888468 473.56006 29.52C 472.62817 31.935589 471.22028 34.13923 469.42 36C 467.60657 37.866814 465.41864 39.32882 463 40.29C 457.72464 42.31681 451.88535 42.31681 446.61 40.29C 444.21997 39.318966 442.06018 37.857513 440.27 36C 438.47205 34.122097 437.06485 31.90593 436.12997 29.48C 435.12283 26.861004 434.61737 24.07589 434.64 21.27zM438.29 21.27C 438.26874 23.58353 438.6581 25.882496 439.44 28.060001C 440.1725 30.085705 441.30112 31.94521 442.76 33.530003C 444.2313 35.098312 446.0168 36.338642 448 37.17C 452.4117 38.94375 457.3383 38.94375 461.75 37.17C 463.7224 36.33498 465.49744 35.09486 466.96 33.53C 468.41888 31.945206 469.54752 30.085697 470.28 28.06C 471.06528 25.883114 471.45804 23.584133 471.44 21.27C 471.45804 18.95587 471.06528 16.656887 470.28 14.4800005C 469.54074 12.447821 468.40164 10.584451 466.93 9C 465.46805 7.431979 463.69308 6.1884737 461.72 5.35C 457.3057 3.5896263 452.3843 3.5896263 447.97 5.35C 445.99692 6.1884737 444.22195 7.431979 442.76 9C 441.3014 10.581198 440.1727 12.437387 439.44 14.46C 438.65576 16.643826 438.26636 18.949753 438.29 21.27z" stroke="none" fill="#AD9970" fill-rule="nonzero" />
</g>
</svg>